<?xml version="1.0" standalone="no"?>
<!DOCTYPE svg PUBLIC "-//W3C//DTD SVG 20010904//EN"
 "http://www.w3.org/TR/2001/REC-SVG-20010904/DTD/svg10.dtd">
<svg version="1.0" xmlns="http://www.w3.org/2000/svg"
 width="1704.000000pt" height="1704.000000pt" viewBox="0 0 1704.000000 1704.000000"
 preserveAspectRatio="xMidYMid meet">

<g transform="translate(0.000000,1704.000000) scale(0.100000,-0.100000)"
fill="#000000" stroke="none">
<path d="M12928 10933 c-45 -4 -49 -6 -68 -47 -10 -23 -26 -49 -35 -56 -8 -7
-15 -20 -15 -30 0 -10 -6 -20 -14 -23 -7 -3 -21 -29 -30 -58 -10 -29 -28 -68
-42 -88 -13 -20 -24 -43 -24 -51 0 -9 -9 -26 -20 -38 -11 -12 -20 -30 -20 -42
0 -11 -4 -20 -10 -20 -5 0 -10 -9 -10 -20 0 -11 -4 -20 -10 -20 -5 0 -10 -6
-10 -12 0 -7 -9 -31 -19 -53 -11 -22 -34 -71 -52 -110 -18 -38 -36 -77 -41
-85 -4 -8 -13 -26 -19 -40 -6 -14 -15 -32 -20 -40 -5 -8 -27 -53 -50 -100 -23
-47 -50 -97 -60 -111 -10 -15 -19 -32 -19 -39 0 -6 -11 -28 -25 -48 -14 -20
-25 -44 -25 -53 0 -9 -18 -44 -40 -77 -22 -33 -40 -66 -40 -75 0 -8 -6 -20
-14 -26 -8 -7 -28 -42 -45 -77 -17 -36 -37 -72 -46 -80 -8 -8 -18 -27 -22 -42
-3 -15 -23 -50 -44 -77 -21 -28 -46 -68 -55 -90 -9 -21 -33 -65 -55 -98 -21
-32 -39 -65 -39 -73 0 -8 -9 -24 -20 -36 -11 -12 -31 -42 -44 -67 -13 -25 -49
-84 -80 -131 -31 -47 -56 -91 -56 -97 0 -7 -4 -13 -9 -13 -8 0 -101 -145 -101
-157 0 -2 -9 -14 -21 -26 -11 -12 -27 -34 -35 -49 -15 -29 -116 -175 -138
-198 -7 -8 -19 -26 -26 -39 -7 -14 -24 -36 -38 -50 -30 -32 -98 -175 -108
-227 -3 -22 -10 -43 -14 -49 -3 -5 -12 -30 -19 -55 -7 -25 -20 -57 -28 -72 -8
-16 -12 -28 -9 -28 5 0 -10 -45 -39 -115 -4 -11 -10 -33 -12 -50 -3 -16 -11
-37 -18 -45 -7 -8 -18 -31 -23 -50 -20 -65 -42 -125 -58 -152 -8 -16 -13 -28
-9 -28 3 0 -4 -18 -15 -40 -16 -32 -60 -139 -65 -160 -2 -6 -38 -86 -76 -166
-16 -34 -36 -67 -44 -74 -8 -7 -12 -16 -10 -21 7 -11 -30 -71 -38 -62 -4 3 -7
-3 -7 -15 0 -12 -4 -22 -10 -22 -5 0 -14 -10 -21 -21 -8 -16 -8 -20 0 -15 13
9 -20 -43 -84 -131 -12 -16 -15 -13 -29 21 -9 21 -16 42 -16 46 0 4 -6 13 -14
19 -21 17 -80 161 -78 191 0 14 -2 19 -5 11 -7 -17 -35 55 -34 87 0 13 -3 21
-8 18 -5 -3 -14 8 -20 24 -5 17 -7 30 -4 30 3 0 -1 8 -9 18 -15 17 -55 131
-78 225 -7 26 -17 47 -22 47 -5 0 -6 4 -3 10 5 9 -20 112 -33 135 -3 5 -7 22
-9 38 -2 17 -11 36 -21 44 -9 8 -11 11 -3 7 11 -6 13 -3 7 12 -5 10 -9 24 -9
31 0 7 -4 10 -8 7 -5 -2 -5 -12 -2 -21 4 -11 3 -14 -6 -9 -7 5 -10 2 -9 -5 2
-7 -5 -15 -14 -17 -13 -2 -18 3 -18 17 0 20 -6 21 -80 21 -47 0 -80 -4 -80
-10 0 -6 -31 -10 -72 -10 -40 0 -84 -3 -96 -7 -27 -7 -26 -15 2 -128 8 -33 20
-80 26 -105 13 -51 61 -204 95 -301 13 -37 21 -70 18 -73 -4 -3 -1 -6 5 -6 6
0 15 -15 21 -32 5 -18 18 -57 29 -85 l20 -53 -33 -27 c-53 -46 -70 -59 -75
-58 -3 0 -16 -10 -29 -22 -23 -21 -25 -21 -37 -5 -7 9 -14 23 -14 30 0 6 -3
12 -7 12 -5 0 -19 17 -33 38 -14 20 -30 42 -36 47 -15 13 -112 177 -112 189 0
5 -5 12 -10 15 -8 5 -81 152 -162 326 -29 63 -70 162 -70 170 0 4 -6 21 -14
38 -48 106 -190 527 -351 1042 -31 99 -64 205 -75 235 -10 30 -39 120 -64 200
-85 271 -115 359 -176 520 -12 30 -28 75 -37 100 -8 25 -22 54 -29 65 -8 11
-14 26 -14 35 0 8 -7 28 -15 44 -8 15 -15 37 -15 47 0 11 -5 19 -11 19 -5 0
-7 5 -4 10 3 6 2 10 -2 10 -7 0 -26 39 -35 70 0 3 -12 22 -25 43 -13 21 -21
43 -17 50 4 7 3 9 -1 4 -9 -7 -56 84 -48 93 2 2 8 -2 13 -10 8 -13 10 -12 10
3 0 10 8 17 20 17 16 0 20 7 20 30 l0 30 164 0 164 0 -2 43 c-1 27 -6 41 -14
40 -7 -2 -11 3 -9 10 1 6 -3 11 -9 10 -7 -1 -10 5 -7 15 7 28 -216 280 -309
349 -76 56 -181 112 -248 133 -36 12 -73 26 -84 31 -10 6 -70 14 -134 19 -377
29 -780 -96 -1204 -372 l-107 -69 -98 98 c-180 179 -366 284 -583 328 -80 16
-89 16 -175 0 -49 -10 -94 -21 -100 -25 -5 -4 -32 -13 -60 -20 -27 -7 -54 -17
-59 -21 -6 -5 -18 -9 -29 -9 -22 0 -194 -77 -219 -98 -9 -8 -23 -11 -30 -6 -7
4 -10 4 -6 -1 10 -11 -53 -57 -70 -50 -7 2 -11 1 -8 -4 3 -4 -13 -23 -36 -42
-149 -119 -344 -334 -481 -529 -37 -52 -71 -99 -75 -105 -11 -15 -163 -261
-207 -335 -21 -36 -54 -91 -73 -123 -18 -32 -49 -87 -67 -123 -19 -36 -38 -71
-43 -77 -5 -7 -44 -79 -87 -162 -43 -82 -81 -154 -85 -160 -4 -5 -41 -76 -83
-156 -41 -81 -82 -158 -90 -170 -8 -13 -44 -81 -80 -151 -35 -70 -68 -124 -72
-120 -5 4 -5 2 -2 -4 3 -6 -8 -37 -25 -70 -17 -32 -105 -207 -196 -389 -91
-181 -170 -333 -176 -337 -6 -4 -7 -8 -2 -8 5 0 4 -6 -1 -12 -6 -7 -13 -26
-17 -41 -4 -15 -11 -25 -16 -22 -6 3 -10 3 -11 -2 -2 -28 -11 -51 -35 -99 -30
-59 -42 -65 -26 -12 6 18 22 74 37 123 42 144 95 317 107 350 5 17 18 57 27
90 10 33 22 69 28 80 6 11 25 61 41 110 17 50 45 124 62 165 17 41 40 98 50
125 10 28 32 78 49 113 17 34 31 65 31 67 0 11 136 292 182 376 9 16 26 51 38
77 37 80 90 176 109 197 10 11 29 43 42 70 14 28 40 73 59 100 40 58 55 82 68
110 6 11 19 29 31 39 11 11 21 25 21 32 0 7 17 33 38 58 61 74 82 104 82 114
0 5 7 12 15 16 8 3 15 11 15 18 0 9 -3 8 -10 -2 -6 -10 -10 -11 -10 -3 0 7 14
20 30 28 21 11 33 26 37 46 3 17 9 26 12 20 4 -7 19 6 37 30 16 22 58 72 94
111 69 74 78 88 61 88 -6 0 -11 -6 -11 -13 0 -16 -38 -53 -45 -45 -3 3 1 10 8
17 8 6 12 22 9 37 -4 20 -9 24 -26 20 -12 -3 -27 -1 -35 3 -22 14 28 41 76 41
36 0 43 3 43 19 0 11 6 22 13 25 9 5 9 7 0 12 -9 4 -10 11 -3 24 26 49 -16 20
-104 -70 -54 -55 -96 -100 -94 -100 2 0 -26 -33 -64 -72 -60 -65 -85 -100 -59
-84 5 4 8 -1 7 -11 -2 -9 -10 -17 -19 -19 -10 -1 -15 2 -11 9 4 7 -10 -6 -30
-28 -20 -21 -34 -45 -32 -52 3 -7 2 -12 -3 -10 -21 6 -154 -161 -147 -185 1
-7 1 -10 -1 -5 -8 13 -23 8 -23 -8 0 -8 -4 -15 -9 -15 -11 0 -92 -116 -86
-124 3 -3 2 -4 -2 -1 -9 7 -83 -107 -76 -118 3 -6 1 -7 -4 -4 -11 7 -116 -147
-116 -170 0 -7 -2 -11 -5 -8 -4 4 -52 -61 -52 -71 0 -3 -12 -21 -26 -39 -15
-20 -23 -39 -18 -46 4 -7 3 -9 -3 -6 -14 9 -24 -17 -17 -40 5 -14 4 -15 -4 -4
-11 15 -6 22 -132 -199 -166 -290 -528 -1050 -502 -1050 4 0 2 -4 -5 -8 -13
-8 -130 -296 -213 -527 -113 -312 -240 -720 -313 -1002 l-24 -93 69 0 c68 0
69 0 84 33 8 17 28 55 44 82 16 28 40 70 52 95 13 25 25 47 28 50 3 3 31 57
64 120 32 63 64 122 71 130 6 8 21 33 32 55 122 244 265 516 269 512 2 -2 -5
-36 -15 -77 -54 -220 -99 -440 -127 -615 -28 -175 -54 -356 -54 -371 0 -13 42
-14 348 -9 385 7 448 14 579 69 233 97 427 287 574 561 23 44 50 91 59 105 9
14 40 72 69 130 30 58 58 112 65 120 13 18 21 32 79 141 24 46 58 107 74 134
17 28 34 61 38 75 4 14 16 34 26 45 28 31 89 154 89 179 0 13 9 31 20 41 11
10 20 29 20 43 0 24 -1 25 -57 18 -32 -4 -122 -6 -200 -6 l-143 1 0 -25 c0
-19 -5 -26 -20 -26 -15 0 -20 7 -20 24 0 16 -7 27 -20 31 -24 8 -25 18 -6 53
8 15 20 41 28 58 29 66 133 232 142 227 5 -3 6 -1 2 6 -9 13 208 363 394 636
364 534 752 995 1140 1354 69 64 143 130 164 146 21 17 57 45 79 63 l41 34 27
-59 c21 -46 81 -213 105 -292 3 -8 32 13 79 60 42 41 82 77 89 81 9 5 23 -13
47 -57 19 -36 37 -65 40 -65 3 0 11 -16 19 -35 11 -28 19 -35 42 -35 15 0 28
-4 28 -10 0 -5 9 -10 20 -10 11 0 20 -4 20 -10 0 -6 26 -10 59 -10 51 0 61 3
66 20 3 11 3 24 0 30 -3 5 -4 10 -1 10 2 0 19 -30 37 -67 18 -38 37 -71 42
-74 5 -4 6 -17 2 -30 -5 -18 -4 -20 4 -10 8 12 12 9 21 -15 7 -16 16 -36 21
-44 17 -29 127 -261 167 -350 39 -87 169 -405 177 -430 4 -14 24 -70 46 -125
21 -55 81 -217 134 -360 305 -821 488 -1225 708 -1555 164 -245 360 -445 528
-536 27 -15 49 -31 49 -35 0 -9 -29 -18 -170 -54 -59 -15 -95 -19 -120 -14
-57 12 -141 45 -195 75 -27 16 -62 36 -77 44 -51 29 -144 104 -211 172 -37 37
-74 68 -82 68 -7 0 -17 9 -20 20 -6 19 -15 20 -136 20 -122 0 -129 -1 -129
-20 0 -17 -7 -20 -50 -20 -27 0 -50 5 -50 10 0 6 -9 10 -20 10 -11 0 -20 4
-20 9 0 5 -16 9 -35 8 -33 -1 -34 -2 -18 -19 17 -19 28 -24 18 -9 -3 5 -1 12
5 16 5 3 11 -1 11 -9 3 -33 18 -66 31 -66 5 0 6 5 3 10 -3 6 -2 10 4 10 9 0
27 -38 23 -52 -1 -3 10 -17 25 -30 14 -13 38 -35 53 -50 23 -23 27 -24 37 -10
9 14 10 13 9 -8 -1 -21 13 -33 84 -76 108 -64 195 -99 301 -119 75 -14 239
-15 1414 -13 l1330 3 80 23 c226 64 469 226 724 481 136 137 373 417 461 546
19 28 39 53 43 56 4 3 7 12 5 20 -2 8 3 13 10 12 11 -3 17 10 12 32 -1 6 2 7
6 3 12 -12 33 12 27 29 -4 10 -2 14 5 9 10 -6 42 29 42 46 0 5 -25 7 -55 6
-30 -1 -55 -6 -55 -10 0 -4 -6 -8 -14 -8 -8 0 -17 -6 -19 -12 -4 -10 -6 -10
-6 0 -1 7 -14 12 -31 12 -23 0 -31 -5 -36 -24 -3 -15 -15 -27 -30 -30 -13 -4
-24 -13 -24 -21 0 -8 -6 -18 -12 -22 -17 -10 -38 -49 -38 -68 0 -18 -16 -20
-23 -2 -4 9 -8 8 -16 -3 -8 -11 -11 19 -11 109 l0 123 -24 -4 c-27 -5 -28 -10
16 82 14 30 28 62 31 70 3 9 6 10 6 3 1 -7 8 -13 16 -13 8 0 15 -4 15 -10 0
-5 -4 -10 -10 -10 -5 0 -10 -9 -10 -20 0 -13 7 -20 20 -20 16 0 20 7 20 35 0
32 -8 41 -34 36 -5 -1 -6 8 -2 21 3 13 6 28 6 33 0 6 4 4 9 -3 5 -9 10 0 15
29 4 24 10 46 15 49 4 3 25 42 48 87 22 46 44 79 48 75 5 -4 5 1 2 11 -4 9 -3
17 1 17 4 0 15 21 26 48 35 90 41 102 48 102 5 0 8 5 8 10 0 11 16 45 118 260
119 252 156 329 183 390 33 73 66 141 133 280 321 666 309 642 429 865 38 72
74 144 81 160 21 58 168 335 177 335 5 0 9 10 9 23 0 13 8 32 19 43 10 11 22
31 26 45 4 13 13 31 19 39 7 8 25 40 40 70 16 30 33 60 37 65 4 6 25 43 45 83
20 40 41 72 46 72 4 0 8 11 8 24 0 14 5 28 10 31 6 3 10 12 9 18 0 7 -2 8 -5
2 -2 -6 -60 -8 -161 -3 -165 6 -773 7 -855 1z m-8202 -745 c4 -7 3 -8 -4 -4
-7 4 -12 1 -12 -8 0 -9 -5 -16 -10 -16 -7 0 -7 6 0 20 12 23 16 24 26 8z m-60
-145 c-11 -11 -17 4 -9 23 7 18 8 18 11 1 2 -10 1 -21 -2 -24z m-94 -38 c-2
-15 0 -25 7 -25 6 0 11 -7 11 -15 0 -8 -4 -15 -10 -15 -5 0 -10 6 -10 14 0 8
-11 16 -25 18 -24 3 -25 4 -10 26 22 30 44 29 37 -3z m2685 -47 c-3 -8 -6 -5
-6 6 -1 11 2 17 5 13 3 -3 4 -12 1 -19z m-2657 -2313 c-6 -15 -13 -26 -15 -23
-3 2 1 19 8 37 6 17 13 28 15 23 1 -5 -2 -22 -8 -37z m7650 -169 c0 -3 -4 -8
-10 -11 -5 -3 -10 -1 -10 4 0 6 5 11 10 11 6 0 10 -2 10 -4z m-45 -65 c-3 -12
-10 -21 -15 -21 -5 0 -4 11 2 25 13 29 23 26 13 -4z m-1942 -6 c-3 -9 -8 -14
-10 -11 -3 3 -2 9 2 15 9 16 15 13 8 -4z m1895 -125 c15 -15 35 -20 72 -20 46
0 50 -2 50 -23 0 -30 -18 -47 -48 -47 -15 0 -26 -7 -29 -20 -9 -35 -33 -24
-33 15 0 34 -1 35 -41 35 -22 0 -39 3 -37 8 3 4 11 22 18 40 17 38 19 38 48
12z m-8827 -27 c-12 -20 -14 -14 -5 12 4 9 9 14 11 11 3 -2 0 -13 -6 -23z
m8740 -60 c-12 -20 -14 -14 -5 12 4 9 9 14 11 11 3 -2 0 -13 -6 -23z m-30 -56
c-10 -9 -11 -8 -5 6 3 10 9 15 12 12 3 -3 0 -11 -7 -18z m6 -44 c-5 -37 -16
-60 -32 -67 -19 -7 -15 65 5 81 23 19 30 15 27 -14z m-4087 -533 c0 -5 -2 -10
-4 -10 -3 0 -8 5 -11 10 -3 6 -1 10 4 10 6 0 11 -4 11 -10z"/>
<path d="M12525 10690 c-16 -7 -17 -9 -3 -9 9 -1 20 4 23 9 7 11 7 11 -20 0z"/>
<path d="M5141 10557 c-8 -10 -7 -14 2 -14 8 0 14 6 14 14 0 7 -1 13 -2 13 -2
0 -8 -6 -14 -13z"/>
<path d="M5086 10522 c-4 -7 -4 -12 1 -13 4 0 16 -2 26 -4 9 -2 15 1 11 6 -3
5 -9 7 -14 4 -4 -3 -10 0 -12 7 -3 9 -6 9 -12 0z"/>
<path d="M4955 10421 c-3 -5 0 -13 6 -17 7 -4 9 -3 5 4 -3 6 3 12 16 15 23 4
23 4 1 6 -12 0 -24 -3 -28 -8z"/>
<path d="M4898 10371 c-27 -24 -30 -29 -13 -28 11 1 26 12 33 25 8 14 19 21
28 18 9 -3 12 -1 9 4 -10 16 -23 12 -57 -19z"/>
<path d="M4989 10323 l-24 -28 28 24 c25 23 32 31 24 31 -2 0 -14 -12 -28 -27z"/>
<path d="M4825 10310 c-3 -6 1 -7 9 -4 18 7 21 14 7 14 -6 0 -13 -4 -16 -10z"/>
<path d="M8900 10221 c0 -5 7 -12 16 -15 14 -5 15 -4 4 9 -14 17 -20 19 -20 6z"/>
<path d="M4855 10209 c-11 -17 1 -21 15 -4 8 9 8 15 2 15 -6 0 -14 -5 -17 -11z"/>
<path d="M8926 10154 c-9 -35 -2 -40 12 -9 6 13 7 27 3 30 -5 2 -12 -7 -15
-21z"/>
<path d="M8550 10040 c0 -5 5 -10 10 -10 6 0 10 5 10 10 0 6 -4 10 -10 10 -5
0 -10 -4 -10 -10z"/>
<path d="M7121 9804 c0 -11 3 -14 6 -6 3 7 2 16 -1 19 -3 4 -6 -2 -5 -13z"/>
<path d="M6569 9703 l-24 -28 28 24 c15 14 27 26 27 28 0 8 -8 1 -31 -24z"/>
<path d="M6319 9413 c-32 -39 -44 -57 -32 -50 13 8 57 67 50 67 -2 0 -10 -8
-18 -17z"/>
<path d="M6189 9253 c-13 -16 -12 -17 4 -4 9 7 17 15 17 17 0 8 -8 3 -21 -13z"/>
<path d="M5771 8654 c0 -11 3 -14 6 -6 3 7 2 16 -1 19 -3 4 -6 -2 -5 -13z"/>
<path d="M5621 8094 c0 -11 3 -14 6 -6 3 7 2 16 -1 19 -3 4 -6 -2 -5 -13z"/>
<path d="M9815 7607 c-4 -10 -5 -21 -1 -24 10 -10 18 4 13 24 -4 17 -4 17 -12
0z"/>
<path d="M12743 7595 c-7 -8 -9 -16 -5 -19 4 -3 13 4 20 15 14 22 3 25 -15 4z"/>
<path d="M12621 7514 c0 -11 3 -14 6 -6 3 7 2 16 -1 19 -3 4 -6 -2 -5 -13z"/>
<path d="M12663 7493 c-17 -6 -16 -23 1 -23 8 0 16 7 20 15 6 15 1 17 -21 8z"/>
<path d="M5385 7320 c-3 -5 -1 -10 4 -10 6 0 11 5 11 10 0 6 -2 10 -4 10 -3 0
-8 -4 -11 -10z"/>
<path d="M9796 6807 c3 -10 9 -15 12 -12 3 3 0 11 -7 18 -10 9 -11 8 -5 -6z"/>
<path d="M7787 6773 c-4 -3 -7 -11 -7 -17 0 -6 5 -5 12 2 6 6 9 14 7 17 -3 3
-9 2 -12 -2z"/>
<path d="M7800 6739 c0 -8 11 -25 25 -37 32 -28 32 -16 0 23 -16 20 -24 25
-25 14z"/>
</g>
</svg>
